<svg id="Capa_1" enable-background="new 0 0 512 512" height="512" viewBox="0 0 512 512" width="512" xmlns="http://www.w3.org/2000/svg"><g><g><path d="m468.78 255.031-34.88-197.837c-.432-2.449 1.452-4.694 3.939-4.694h29.661c3.866 0 7-3.134 7-7v-31c0-3.866-3.134-7-7-7h-85.059c-12.13 0-21.467 10.71-19.813 22.727l30.355 220.554c13.87 82.14-49.437 157.034-132.739 157.034-81.06 0-143.736-71.115-133.552-151.533l23.52-226.718c1.223-11.799-8.032-22.064-19.894-22.064h-85.818c-3.866 0-7 3.134-7 7v31c0 3.866 3.134 7 7 7h27.632c2.417 0 4.282 2.128 3.965 4.524l-27.378 207.049c-16.84 127.354 82.265 240.427 210.728 240.427 132.157 0 232.28-119.319 209.333-249.469z" fill="#ecf5ff"/><g fill="#d8ecfe"><path d="m120.211 29.564-23.52 226.718c-10.184 80.418 52.492 151.533 133.552 151.533 5.075 0 10.075-.283 14.988-.823-73.619-8.128-128.087-75.331-118.54-150.709l23.52-226.718c1.224-11.8-8.031-22.065-19.893-22.065h-30c11.862 0 21.117 10.265 19.893 22.064z"/><path d="m467.5 7.5h-30c3.866 0 7 3.134 7 7v31c0 3.866-3.134 7-7 7-17.961 0-31.569 16.216-28.45 33.905l29.73 168.627c22.069 125.175-69.708 240.31-194.331 248.931 4.952.343 9.949.538 14.997.538 132.157 0 232.28-119.319 209.333-249.469l-34.879-197.838c-.432-2.449 1.452-4.694 3.939-4.694h29.661c3.866 0 7-3.134 7-7v-31c0-3.866-3.134-7-7-7z"/></g><path d="m326.276 441.5h-140.552c-9.9 0-18.31 7.243-19.779 17.033l-3.4 22.666c28.939 14.853 61.821 23.301 96.901 23.301 32.563 0 63.174-7.256 90.485-20.121l-3.877-25.846c-1.468-9.79-9.878-17.033-19.778-17.033z" fill="#d8ecfe"/><path d="m346.055 458.533c-1.469-9.79-9.879-17.033-19.779-17.033h-30c9.9 0 18.31 7.243 19.779 17.033 2.402 16.012-7.234 31.365-22.682 36.215-15.56 4.886-31.935 8.036-48.919 9.213 4.951.344 9.946.539 14.992.539 32.563 0 63.174-7.256 90.485-20.121z" fill="#c4e2ff"/></g><path d="m79.169 277.242c.008 5.358.235 10.784.676 16.127.323 3.918 3.603 6.884 7.466 6.884 4.371 0 7.841-3.77 7.483-8.117-.407-4.942-.618-9.961-.625-14.917-.006-4.138-3.363-7.489-7.5-7.489h-.011c-4.142.007-7.495 3.37-7.489 7.512zm23.292 93.08c1.978 3.692 6.563 4.992 10.153 3.069 3.651-1.957 5.025-6.502 3.069-10.153-2.333-4.355-4.516-8.872-6.487-13.426-1.646-3.801-6.062-5.548-9.862-3.903-3.801 1.645-5.549 6.061-3.903 9.862 2.135 4.935 4.501 9.831 7.03 14.551zm379.539-324.822v-31c0-7.995-6.505-14.5-14.5-14.5h-85.059c-7.95 0-15.506 3.437-20.729 9.429-5.224 5.992-7.598 13.946-6.514 21.82l30.354 220.554c.01.076.021.151.034.226 6.243 36.97-4.059 74.595-28.263 103.229-24.203 28.633-59.588 45.056-97.081 45.056-36.484 0-71.243-15.698-95.366-43.068-24.123-27.371-35.329-63.827-30.745-100.022.007-.056.014-.112.02-.168l11.248-108.426c.427-4.12-2.566-7.807-6.686-8.234-4.12-.428-7.807 2.566-8.234 6.686l-11.24 108.344c-5.095 40.437 7.435 81.161 34.384 111.738 26.969 30.6 65.831 48.15 106.619 48.15 41.917 0 81.478-18.36 108.537-50.372 27.035-31.983 38.556-74 31.617-115.295l-30.34-220.443c-.5-3.632.552-7.154 2.961-9.918s5.756-4.286 9.423-4.286h84.56v30h-29.16c-3.408 0-6.619 1.497-8.81 4.107-2.19 2.61-3.107 6.033-2.516 9.389l34.88 197.837c10.551 59.845-5.801 120.867-44.862 167.418-17.148 20.436-37.805 37.043-60.724 49.248l-2.337-15.578c-2.036-13.571-13.472-23.421-27.195-23.421h-28.779c-4.143 0-7.5 3.358-7.5 7.5s3.357 7.5 7.5 7.5h28.779c6.237 0 11.436 4.477 12.361 10.646l3.029 20.194c-25.592 11.195-53.513 17.16-82.22 17.16-31.043 0-61.291-7.046-88.661-20.171l2.577-17.184c.925-6.168 6.124-10.646 12.361-10.646h76.773c4.142 0 7.5-3.358 7.5-7.5s-3.358-7.5-7.5-7.5h-76.773c-13.723 0-25.16 9.85-27.195 23.421l-1.798 11.983c-19.155-11.085-36.594-25.301-51.496-42.303-38.934-44.421-56.823-103.483-49.08-162.043l27.379-207.049c.434-3.284-.569-6.597-2.753-9.088-2.183-2.491-5.336-3.92-8.648-3.92h-27.132v-30h85.318c3.585 0 6.883 1.467 9.284 4.13s3.52 6.093 3.149 9.66l-8.638 83.265c-.427 4.12 2.566 7.807 6.686 8.234 4.126.431 7.807-2.566 8.234-6.686l8.638-83.265c.802-7.732-1.723-15.479-6.929-21.252-5.206-5.774-12.65-9.086-20.424-9.086h-85.818c-7.995 0-14.5 6.505-14.5 14.5v31c0 7.995 6.505 14.5 14.5 14.5h23.639l-26.855 203.091c-8.31 62.843 10.887 126.226 52.669 173.897 41.605 47.468 102.397 75.012 165.494 75.012 64.797 0 126.91-28.953 168.575-78.607 41.919-49.956 59.467-115.441 48.143-179.664l-34.154-193.729h25.489c7.995 0 14.5-6.505 14.5-14.5zm-380.397 100.268c4.046.507 7.857-2.37 8.375-6.509l1.933-15.419c.515-4.11-2.4-7.859-6.509-8.374-4.115-.515-7.859 2.399-8.375 6.509l-1.933 15.419c-.515 4.109 2.399 7.858 6.509 8.374zm-14.239 53.305-1.933 15.42c-.515 4.11 2.399 7.859 6.509 8.374 4.045.507 7.857-2.37 8.375-6.509l1.933-15.42c.515-4.11-2.399-7.859-6.509-8.374-4.118-.516-7.86 2.399-8.375 6.509zm32.29-137.023 2.058-16.419c.515-4.11-2.399-7.859-6.509-8.375-4.119-.514-7.86 2.399-8.374 6.509l-2.058 16.419c-.515 4.11 2.399 7.859 6.509 8.375 4.045.508 7.856-2.37 8.374-6.509zm300.93 282.658c-3.81-1.624-8.215.153-9.838 3.964-1.941 4.562-4.096 9.092-6.404 13.465-1.934 3.663-.531 8.2 3.132 10.134 3.598 1.899 8.179.572 10.134-3.132 2.502-4.74 4.837-9.65 6.941-14.593 1.622-3.812-.153-8.216-3.965-9.838zm-15.829-205.758c.683 4.124 4.626 6.831 8.634 6.161 4.085-.683 6.844-4.548 6.161-8.634l-2.561-15.328c-.684-4.085-4.54-6.846-8.634-6.161-4.085.683-6.844 4.548-6.161 8.634zm25.041 58.839c-.684-4.086-4.543-6.847-8.634-6.161-4.085.683-6.844 4.548-6.161 8.634l2.561 15.328c.683 4.124 4.626 6.831 8.634 6.161 4.085-.683 6.844-4.548 6.161-8.634zm2.442 101.18c3.888 0 7.176-3 7.472-6.94.37-4.943.558-9.968.558-14.958 0-4.547-2.965-8.63-7.503-8.63h-.039c-4.748 0-7.458 4.17-7.458 8.652 0 4.596-.174 9.244-.517 13.816-.325 4.341 3.139 8.06 7.487 8.06zm-25.496-239.132-2.736-16.375c-.684-4.085-4.543-6.844-8.634-6.161-4.085.683-6.844 4.548-6.161 8.634l2.736 16.375c.683 4.124 4.626 6.831 8.634 6.161 4.085-.682 6.844-4.548 6.161-8.634z"/></g></svg>